PathFileType	4	(X/Y/Z)	C:/Users/beibeiliu/ov580/test_trc/User1\sequence.37_training_dense_right.trc
DataRate	CameraRate	NumFrames	NumMarkers	Units	OrigDataRate	OrigDataStartFrame	OrigNumFrames
120	120	20	19	mm	120	213	243
Frame#	Time	ThumbCMC			ThumbMCP			ThumbIP			ThumbTip			IndexMCP			IndexPIP			IndexTip			MiddleMCP			MiddlePIP			MiddleTip			RingMCP			RingPIP			RingTip			PinkyMCP			PinkyPIP			PinkyTip			BackHand1			BackHand2			BackHand3	
		X0	Y0	Z0	X1	Y1	Z1	X2	Y2	Z2	X3	Y3	Z3	X4	Y4	Z4	X5	Y5	Z5	X6	Y6	Z6	X7	Y7	Z7	X8	Y8	Z8	X9	Y9	Z9	X10	Y10	Z10	X11	Y11	Z11	X12	Y12	Z12	X13	Y13	Z13	X14	Y14	Z14	X15	Y15	Z15	X16	Y16	Z16	X17	Y17	Z17	X18	Y18	Z18	
212	1.76667	208.377	-33.7954	49.7674	190.694	-38.32	23.8907	185.059	-40.6341	-5.99927	176.415	-47.1788	-28.2268	211.942	-79.8538	-15.673	182.26	-82.7331	-19.1576	159.377	-67.5065	6.34704	205.888	-105.615	-7.01637	175.192	-96.5032	-7.20347	165.686	-76.9418	25.7532	196.64	-122.019	9.05501	167.402	-105.069	12.9223	170.3	-86.4181	40.3175	195.265	-132.44	27.5069	171.047	-116.246	25.1871	175.286	-93.1793	47.8974	236.313	-100.985	59.3937	231.391	-85.5235	89.7012	239.251	-63.0517	59.6957	
213	1.775	208.057	-35.2602	52.9355	192.092	-37.4656	19.5097	185.906	-43.8352	-6.72832	178.376	-50.8938	-29.7177	214.856	-79.2133	-12.9297	182.284	-83.1383	-18.8914	159.793	-68.1073	7.61622	209.956	-105.058	-4.66353	173.62	-97.966	-5.33168	168.807	-77.4333	31.4182	199.393	-118.432	7.31392	169.243	-107.735	12.5039	171.738	-84.0838	40.3227	198.194	-131.743	28.5742	171.203	-117.867	26.9642	176.994	-93.0807	44.6196	236.403	-101.35	62.6855	231.572	-86.4874	94.7682	239.057	-61.0781	63.4164	
214	1.78333	208.074	-33.8234	53.7231	192.093	-38.8296	24.704	186.827	-43.1414	-6.84094	177.182	-48.0614	-26.5407	213.903	-80.5436	-13.6596	182.217	-85.5417	-16.9531	161.688	-69.929	7.614	209.148	-103.937	-5.67461	175.056	-101.187	-4.11791	168.585	-75.8331	27.8709	199.98	-119.179	7.44061	167.699	-106.995	12.8661	168.735	-87.9279	39.4612	196.752	-133.952	29.1647	172.393	-115.24	26.7321	178.147	-92.2213	46.5411	236.749	-105.677	59.9221	233.954	-90.6582	93.6212	238.206	-65.0965	63.8782	
215	1.79167	209.169	-36.3142	53.0104	193.633	-39.7175	21.3223	187.748	-44.0372	-3.47232	178.711	-47.6905	-26.5879	213.065	-84.2192	-13.2362	180.481	-85.2705	-17.4412	162.234	-71.794	8.31023	207.653	-103.817	-6.82199	175.016	-99.8475	-4.9875	168.296	-78.1047	30.2187	199.427	-122.846	10.5321	168.209	-105.748	12.5005	168.574	-87.7586	36.6313	197.123	-133.105	27.7697	170.986	-119.108	27.0443	174.323	-92.6254	45.2517	236.457	-103.326	61.2486	233.315	-88.8471	93.1932	241.17	-63.7379	60.7995	
216	1.8	209.1	-34.7103	52.3849	192.924	-40.3982	23.2737	188.334	-46.8978	-4.97023	180.059	-47.9043	-28.0334	215.015	-82.2273	-13.3426	182.481	-86.1453	-17.2511	162.246	-73.6117	9.36014	211.638	-104.188	-4.43992	173.341	-98.8962	-2.51799	166.774	-75.5684	25.2202	200.093	-120.993	7.76353	169.933	-109.991	11.6518	170.438	-86.2303	38.6714	197.551	-133.104	29.0742	173.918	-115.42	26.7031	176.617	-92.6114	50.0183	238.248	-103.668	58.3686	234.495	-92.0323	92.0126	238.404	-65.6406	64.3964	
217	1.80833	208.608	-35.673	54.2446	193.258	-36.315	23.3991	189.492	-42.4578	-6.7542	180.846	-47.3856	-24.5646	215.894	-80.5573	-15.0154	182.042	-83.9111	-18.8124	163.149	-71.4124	9.41153	208.284	-107.205	-5.48952	174.429	-101.086	-3.99248	165.996	-77.811	28.166	200.371	-121.595	8.10256	168.818	-110.693	13.6101	168.54	-87.2908	37.2694	198.06	-134.093	29.6464	173.017	-118.756	26.8808	175.863	-91.7039	44.115	235.296	-104.32	61.2501	234.713	-91.8568	91.4002	239.013	-65.7583	62.1187	
218	1.81667	209.417	-35.3647	55.649	195.058	-35.8784	22.7992	191.555	-39.3869	-6.55912	183.163	-41.9679	-26.9274	215.781	-80.2153	-14.0953	182.155	-83.4532	-18.0109	163.656	-72.5311	11.973	211.106	-104.382	-6.6559	174.002	-101.588	-4.89132	163.413	-79.5803	26.8524	200.743	-121.398	7.99259	170.193	-114.107	11.1369	167.562	-90.7738	36.7803	201.44	-131.832	28.1343	172.763	-122.296	25.6155	177.767	-91.6634	45.2684	238.369	-102.167	62.5803	235.213	-87.4927	92.8341	239.895	-66.9819	62.8666	
219	1.825	208.643	-35.031	57.6178	196.418	-29.7925	23.8169	194.593	-36.2634	-5.47564	185.27	-42.1079	-26.5372	216.373	-82.2947	-11.2729	181.702	-86.0089	-16.2189	163.905	-74.4952	8.70324	210.672	-105.691	-7.11416	176.692	-102.547	-7.27854	161.431	-81.9023	22.0398	201.589	-123.679	8.95247	171.281	-112.119	9.42851	166.084	-90.133	35.3631	199.88	-131.783	26.2356	175.749	-120.842	23.4093	173.582	-94.5741	43.5734	236.549	-102.827	61.654	233.206	-86.789	92.3051	237.005	-62.3389	64.408	
220	1.83333	211.146	-30.6398	57.4204	200.078	-30.301	23.7706	195.129	-33.3075	-4.01562	187.483	-45.2774	-27.5841	215.156	-78.7028	-15.4573	181.451	-83.2102	-19.2431	162.735	-71.2537	6.66618	210.638	-106.939	-6.69514	174.711	-99.3917	-8.6897	160.499	-84.9188	22.2017	206.946	-121.496	9.70883	171.121	-114.644	8.74177	164.583	-92.0106	32.7044	200.658	-130.953	27.8724	171.432	-120.468	25.4889	172.186	-93.412	40.4442	236.324	-103.932	62.074	231.585	-85.2783	94.491	238.543	-64.7276	59.7597	
221	1.84167	211.376	-31.1551	56.8629	199.436	-24.9507	25.6492	195.929	-32.4659	-0.286625	187.252	-46.4825	-25.7036	215.697	-81.232	-14.1653	185.603	-86.5744	-19.6715	162.338	-72.3895	3.10869	213.042	-105.74	-4.51991	175.931	-98.2297	-10.6895	159.495	-83.6706	19.1006	206.81	-122.093	11.1281	170.606	-114.542	7.72738	162.647	-92.5025	28.6112	200.454	-135.585	31.3378	175.87	-122.267	22.4954	167.354	-97.1103	40.8339	237.404	-100.793	64.2144	231.896	-83.5968	94.6026	239.304	-62.9781	64.0572	
222	1.85	211.286	-31.5079	57.3728	200.356	-25.8851	29.5997	197.347	-31.1934	-3.01514	185.381	-44.1649	-22.6488	215.532	-79.4598	-13.4471	183.942	-86.6283	-19.1242	162.761	-75.1263	1.08665	215.203	-103.443	-4.69962	177.516	-100.083	-12.035	158.723	-84.3	14.3541	205.355	-121.36	7.77406	173.292	-115.881	5.91154	161.337	-93.6551	30.4699	198.877	-134.978	28.8956	174.145	-121.072	23.0627	168.776	-95.403	35.483	237.318	-102.561	64.6531	233.001	-85.9935	92.6751	238.408	-61.3499	61.1434	
223	1.85833	210.567	-33.3126	60.4094	201.584	-25.4445	26.6581	196.144	-30.8023	4.00593	185.187	-48.2225	-23.6504	216.898	-76.5793	-12.1419	186.384	-82.2106	-22.9441	161.425	-74.9947	3.54681	213.527	-102.488	-7.27585	177.504	-101.916	-10.8829	159.325	-86.551	13.9834	205.139	-122.969	7.51133	173.432	-113.891	4.29006	160.202	-94.692	29.5207	204.76	-132.017	32.4837	175.388	-120.631	22.1776	167.002	-95.6787	40.4077	238.655	-98.5321	63.5077	235.837	-84.9169	93.7706	239.465	-59.8794	65.6001	
224	1.86667	212.089	-29.4934	61.146	202.152	-26.8013	28.3566	196.536	-31.898	3.06098	183.901	-46.5078	-19.8119	216.413	-77.613	-12.0535	186.43	-83.075	-20.7673	160.564	-72.9095	2.32907	215.334	-101.484	-6.94412	177.479	-103.206	-10.6106	158.273	-84.9603	14.2949	209.358	-121.938	11.6137	172.948	-115.713	4.24949	161.233	-93.4852	27.0997	202.651	-132.127	29.7491	176.652	-120.801	20.8338	165.667	-96.9807	35.7635	237.538	-101.612	61.8481	232.855	-86.2376	94.0192	239.648	-61.801	66.3791	
225	1.875	212.528	-29.5325	59.9063	200.602	-22.8245	29.8841	196.545	-31.5428	1.58139	183.352	-47.9946	-18.4668	217.208	-79.1893	-11.552	184.735	-80.1433	-22.7501	161.722	-75.0854	2.5148	213.282	-102.002	-6.66091	178.885	-98.5553	-13.5416	158.218	-85.0009	12.8617	205.342	-122.293	7.75902	175.636	-112.982	2.01494	159.272	-98.0983	27.5383	201.957	-129.654	26.7087	173.622	-124.594	22.3963	164.42	-94.1708	38.4855	235.727	-98.3077	59.7524	232.683	-88.1379	94.9223	239.445	-59.7613	66.7276	
226	1.88333	211.191	-30.7854	63.8277	201.259	-22.8224	26.1029	195.025	-29.2612	2.36485	182.145	-48.4452	-20.3601	218.204	-74.4094	-10.6164	185.273	-83.1325	-20.2278	162.327	-74.9341	2.31022	211.52	-104.295	-6.74835	177.999	-97.6502	-13.8969	158.333	-84.5236	15.1914	204.577	-119.938	6.46818	175.117	-114.629	2.50054	160.707	-95.3101	24.8753	203.041	-130.168	30.576	176.071	-121.315	20.3017	163.455	-95.5894	34.4686	237.293	-102.19	61.5417	232.167	-83.7836	95.3418	237.659	-60.1234	64.7993	
227	1.89167	211.841	-31.0339	63.5533	199.837	-20.8313	28.0343	194.599	-32.5592	1.77316	182.275	-47.2666	-14.9863	215.082	-78.6127	-12.575	181.851	-80.5282	-19.6704	162.42	-71.3075	4.4709	211.938	-103.613	-7.02406	178.33	-97.6183	-14.051	158.413	-84.0202	14.6298	204.395	-119.148	6.33438	173.498	-111.842	1.17976	159.316	-94.1615	29.2314	200.972	-129.616	28.0929	173.492	-119.346	20.4942	163.367	-96.119	37.951	235.761	-100.547	61.6575	232.852	-84.0601	96.0632	238.281	-62.2141	68.2816	
228	1.9	213.529	-27.1989	57.4388	200.365	-19.473	28.1833	194.732	-33.1883	1.4466	180.697	-50.4423	-17.1751	215.836	-77.414	-10.6149	185.442	-81.2797	-21.1479	160.999	-66.1214	4.63977	213.647	-102.862	-4.34756	179.133	-98.7202	-13.7915	157.957	-80.0602	13.5854	206.991	-116.923	8.49575	170.752	-112.81	3.64257	159.568	-91.8619	28.6384	200.162	-132.102	31.1101	175.392	-122.82	19.0444	165.259	-92.8103	34.6149	235.904	-97.9726	63.2543	233.313	-83.4577	94.138	239.93	-59.0454	62.1994	
229	1.90833	212.483	-27.0564	59.9616	198.961	-20.9767	30.2355	193.34	-30.226	1.26165	179.282	-46.5539	-16.4909	215.907	-76.2273	-12.2009	184.469	-80.1875	-20.8471	161.015	-67.6464	8.41146	214.253	-97.5245	-6.36432	175.531	-96.942	-12.826	159.84	-78.35	16.0415	204.002	-116.779	4.43021	170.384	-110.247	2.76366	159.438	-94.4965	26.2962	197.701	-131.379	26.9967	174.578	-116.336	19.5341	166.657	-92.3271	37.7728	234.804	-101.557	60.1561	232.699	-82.8821	95.8886	239.936	-58.7861	63.8769	
230	1.91667	212.477	-32.4931	58.8922	197.988	-25.6156	27.3418	190.96	-31.8888	2.08348	179.88	-50.9257	-17.8115	215.799	-74.163	-12.617	185.218	-79.8392	-19.378	162.411	-66.4982	3.7359	213.472	-100.975	-5.29026	176.205	-94.3665	-13.7775	160.407	-78.1546	13.3672	205.239	-114.776	6.68869	169.581	-108.978	4.50276	161.975	-88.963	30.0171	197.676	-129.156	26.2165	171.875	-117.511	20.9097	167.217	-94.5928	36.5608	233.875	-100.988	64.4843	232.018	-86.6914	97.5765	237.697	-58.6217	64.9786	
231	1.925	211.778	-28.9524	58.4259	196.804	-25.0022	25.3788	189.773	-29.984	0.278627	179.052	-49.5286	-19.286	215.709	-73.1909	-12.8933	180.538	-75.2368	-19.4021	161.627	-65.7593	8.15231	210.726	-102.181	-4.34801	174.744	-94.0944	-10.49	160.787	-79.0614	18.3103	203.152	-115.093	7.59346	171.302	-108.431	4.03735	161.788	-91.9889	31.2572	197.246	-132.363	29.9041	169.954	-116.816	23.0451	169.147	-90.0529	38.215	233.972	-100.474	63.1152	232.98	-88.1471	94.4103	238.883	-63.7876	64.6254	
